<?xml version="1.0" standalone="no"?>
<!DOCTYPE svg PUBLIC "-//W3C//DTD SVG 20010904//EN"
 "http://www.w3.org/TR/2001/REC-SVG-20010904/DTD/svg10.dtd">
<svg version="1.0" xmlns="http://www.w3.org/2000/svg"
 width="330.000000pt" height="330.000000pt" viewBox="0 0 330.000000 330.000000"
 preserveAspectRatio="xMidYMid meet">
<metadata>
Created by potrace 1.14, written by Peter Selinger 2001-2017
</metadata>
<g transform="translate(0.000000,330.000000) scale(0.100000,-0.100000)"
fill="#000000" stroke="none">
<path d="M1466 2588 c3 -18 12 -60 20 -94 7 -34 16 -82 19 -108 6 -41 5 -46
-13 -46 -14 0 -40 28 -83 89 -35 50 -65 89 -66 87 -3 -2 29 -82 65 -165 15
-34 9 -60 -15 -68 -6 -2 -47 26 -92 62 -45 36 -84 65 -87 65 -5 0 42 -61 110
-146 41 -51 19 -55 -77 -13 -129 56 -139 57 -72 6 33 -24 76 -58 95 -75 31
-27 33 -32 20 -46 -13 -13 -25 -12 -105 5 -49 10 -101 21 -115 24 -14 3 -36 7
-50 10 -14 3 -45 10 -70 15 -25 5 -56 12 -69 14 -13 3 -20 2 -17 -2 4 -4 11
-7 14 -7 4 0 13 -4 20 -8 6 -5 12 -6 12 -2 0 3 9 1 21 -5 11 -6 28 -13 37 -15
9 -2 80 -26 157 -53 91 -32 141 -55 143 -65 4 -21 -6 -26 -69 -33 -30 -3 -67
-7 -84 -9 -16 -2 -43 -4 -60 -5 -29 -1 -29 -2 -7 -11 24 -9 49 -15 117 -25 71
-12 70 -18 -7 -64 -213 -126 -354 -275 -399 -420 -21 -67 -16 -128 17 -195 13
-27 27 -66 30 -85 20 -112 124 -199 281 -236 66 -16 260 -22 328 -11 17 3 54
8 83 12 44 6 51 9 41 21 -6 8 -17 14 -23 14 -6 0 -28 10 -49 23 l-38 23 60 49
c33 27 59 51 57 52 -1 1 -51 -6 -111 -16 -161 -28 -344 -23 -449 12 -43 14
-101 41 -127 59 -42 28 -49 38 -49 66 0 75 73 197 179 300 96 92 314 227 469
290 l54 22 -5 -45 c-2 -25 -1 -44 3 -43 12 5 260 241 257 245 -4 4 -257 56
-337 70 l-35 6 28 -30 c15 -16 27 -32 27 -36 0 -6 -65 -37 -77 -37 -11 0 8 83
26 118 81 157 305 189 436 62 31 -30 47 -63 28 -58 -16 4 -113 -13 -113 -20 1
-4 28 -20 62 -35 l62 -28 -39 -32 c-22 -18 -51 -42 -65 -55 -22 -20 -22 -22
-5 -18 11 3 36 7 55 10 19 3 46 8 60 12 14 3 90 8 170 10 163 4 236 -8 335
-55 89 -42 109 -64 101 -115 -4 -22 -21 -70 -38 -106 -39 -81 -179 -224 -288
-295 -140 -92 -349 -193 -370 -180 -5 3 -5 19 0 35 5 16 5 32 1 34 -4 3 -42
-27 -83 -67 -42 -40 -100 -94 -129 -122 l-53 -50 55 -12 c30 -7 65 -14 79 -17
26 -5 108 -22 150 -31 14 -3 41 -8 60 -11 l35 -6 -25 28 c-14 16 -29 32 -35
36 -5 4 -1 10 10 13 56 19 130 52 215 97 372 197 553 456 455 653 -13 27 -27
66 -30 85 -23 141 -191 245 -409 253 -42 2 -76 7 -77 11 0 8 56 53 127 101 47
33 21 27 -74 -16 -88 -40 -108 -44 -120 -23 -9 16 0 31 122 194 6 8 -29 -16
-77 -53 -48 -38 -94 -70 -101 -73 -35 -13 -21 36 49 178 71 143 87 194 44 138
-10 -14 -53 -77 -95 -140 -43 -63 -78 -117 -80 -118 -5 -7 -44 9 -40 16 2 4 6
34 10 67 7 67 14 111 22 138 12 40 -5 12 -31 -50 -16 -38 -37 -88 -47 -112
-23 -55 -40 -44 -45 31 -2 29 -5 62 -7 73 -3 11 -5 36 -6 55 l-2 35 -8 -28
c-5 -16 -11 -51 -14 -79 -9 -85 -17 -116 -32 -122 -18 -7 -21 0 -70 134 -27
74 -48 116 -58 118 -13 3 -15 -3 -10 -30z"/>
<path d="M2121 1842 c-24 -8 -39 -17 -33 -21 5 -3 17 -28 26 -55 9 -26 21 -57
27 -68 8 -16 8 -23 -2 -29 -26 -16 1 -9 56 15 76 34 96 85 52 139 -27 34 -66
40 -126 19z m79 -24 c35 -42 37 -109 5 -122 -15 -5 -51 62 -62 117 -5 23 -2
27 17 27 12 0 30 -10 40 -22z"/>
<path d="M1971 1733 c-4 -89 -6 -107 -14 -120 -6 -9 -1 -13 13 -13 17 0 19 3
11 18 -12 23 -3 38 31 51 21 8 28 7 34 -7 4 -9 7 -20 6 -24 -1 -4 12 -2 29 4
l31 11 -68 68 c-38 38 -69 69 -70 69 0 0 -2 -26 -3 -57z m40 -29 c10 -13 10
-17 -2 -25 -23 -14 -29 -11 -29 16 0 29 12 32 31 9z"/>
<path d="M1810 1724 c-25 -8 -52 -17 -60 -20 -11 -4 -11 -7 -2 -13 6 -4 23
-36 37 -71 19 -47 22 -67 14 -77 -12 -13 33 1 89 30 47 23 51 72 6 83 -20 5
-21 9 -11 25 10 15 8 22 -8 38 -19 18 -23 19 -65 5z m38 -47 c-4 -32 -34 -34
-42 -2 -9 35 0 48 25 34 13 -6 19 -18 17 -32z m31 -54 c11 -20 -3 -53 -22 -53
-14 0 -38 55 -29 64 11 12 41 5 51 -11z"/>
<path d="M1560 1633 c-55 -19 -56 -19 -41 -36 16 -20 52 -128 46 -138 -3 -4 7
-4 23 2 l30 10 -29 67 c-16 37 -29 73 -29 80 0 20 44 14 58 -8 10 -17 9 -23
-7 -39 -19 -19 -18 -20 22 -48 30 -21 49 -28 66 -24 23 6 22 8 -18 35 -29 20
-39 32 -31 40 15 15 12 42 -6 60 -19 19 -27 19 -84 -1z"/>
<path d="M1395 1540 c-1 -16 3 -30 8 -30 9 0 37 -25 37 -34 0 -3 -10 -10 -21
-17 -12 -6 -19 -7 -16 -2 2 4 1 17 -4 28 -5 15 -8 7 -8 -27 -1 -25 -4 -54 -7
-62 -5 -12 -2 -15 10 -10 10 4 14 13 11 28 -4 14 1 25 15 34 28 17 63 6 57
-18 -4 -15 -1 -17 12 -10 9 5 23 11 33 14 12 4 1 20 -50 70 -36 36 -68 66 -71
66 -3 0 -6 -13 -6 -30z"/>
<path d="M1223 1509 c-55 -21 -58 -25 -45 -47 6 -9 11 -6 19 11 10 22 53 45
53 28 0 -4 -9 -46 -19 -95 -11 -48 -16 -86 -12 -84 4 2 37 14 74 27 68 25 72
30 57 66 -8 20 -9 20 -9 -1 -1 -24 -26 -48 -58 -58 -23 -7 -23 -7 -8 69 3 14
7 37 10 53 3 15 8 33 10 40 6 17 -11 15 -72 -9z"/>
<path d="M1059 1434 c0 -11 -2 -29 -3 -42 -2 -15 2 -21 10 -18 11 4 62 -44 74
-70 4 -8 12 -8 30 0 l26 11 -68 69 c-50 51 -68 64 -69 50z"/>
<path d="M1049 1312 c-4 -55 -3 -57 21 -42 10 6 11 10 3 10 -7 0 -13 9 -13 20
0 11 6 20 14 20 8 0 18 5 22 11 4 7 0 9 -14 5 -15 -5 -22 -2 -24 11 -3 10 -6
-6 -9 -35z"/>
<path d="M1616 954 c-39 -96 -76 -210 -76 -233 0 -42 20 -52 92 -49 63 3 63 3
71 38 8 30 2 53 -35 149 -34 88 -46 110 -52 95z"/>
</g>
</svg>
